<?xml version="1.0" encoding="UTF-8" standalone="no"?>
<!-- Generator: Adobe Illustrator 23.0.3, SVG Export Plug-In . SVG Version: 6.00 Build 0)  -->

<svg
   version="1.1"
   id="Layer_1"
   x="0px"
   y="0px"
   viewBox="0 0 850.39 850.39"
   style="enable-background:new 0 0 850.39 850.39;"
   xml:space="preserve"
   sodipodi:docname="thanh_toan.svg"
   inkscape:version="1.3.2 (091e20e, 2023-11-25, custom)"
   xmlns:inkscape="http://www.inkscape.org/namespaces/inkscape"
   xmlns:sodipodi="http://sodipodi.sourceforge.net/DTD/sodipodi-0.dtd"
   xmlns="http://www.w3.org/2000/svg"
   xmlns:svg="http://www.w3.org/2000/svg"><defs
   id="defs8" /><sodipodi:namedview
   id="namedview8"
   pagecolor="#ffffff"
   bordercolor="#000000"
   borderopacity="0.25"
   inkscape:showpageshadow="2"
   inkscape:pageopacity="0.0"
   inkscape:pagecheckerboard="0"
   inkscape:deskcolor="#d1d1d1"
   inkscape:zoom="0.86901303"
   inkscape:cx="424.61964"
   inkscape:cy="425.19501"
   inkscape:window-width="1920"
   inkscape:window-height="974"
   inkscape:window-x="-11"
   inkscape:window-y="-11"
   inkscape:window-maximized="1"
   inkscape:current-layer="Layer_1" />
<style
   type="text/css"
   id="style1">
	.st0{fill:#A0D6B4;}
</style>
<g
   id="g8">
	<g
   id="g2">
		<g
   id="g1">
			<path
   class="st0"
   d="M759.3,279.87c-2-9.19-5.71-17.81-11.04-25.61c-5.33-7.8-12-14.39-19.84-19.6     c-8.12-5.39-17.13-9.04-26.77-10.86L283.3,145.04c-9.65-1.82-19.37-1.69-28.89,0.38c-9.19,2-17.81,5.71-25.61,11.04     c-7.8,5.33-14.39,12-19.6,19.84c-5.39,8.12-9.04,17.13-10.86,26.77l-27.28,144.88h-3.04c-10.61,0-20.9,2.08-30.6,6.18     c-9.36,3.96-17.76,9.63-24.98,16.84c-7.22,7.22-12.88,15.62-16.84,24.98c-4.1,9.7-6.18,19.99-6.18,30.6v201.47     c0,10.61,2.08,20.9,6.18,30.6c3.96,9.36,9.63,17.77,16.84,24.98c7.22,7.22,15.62,12.88,24.98,16.84c9.7,4.1,19.99,6.18,30.6,6.18     h405.99c10.61,0,20.9-2.08,30.6-6.18c9.36-3.96,17.76-9.63,24.98-16.84c7.22-7.22,12.88-15.62,16.84-24.98     c4.1-9.69,6.18-19.99,6.18-30.6v-68.8c3.05,0.46,6.1,0.69,9.15,0.69c4.32,0,8.64-0.46,12.9-1.39c7.72-1.68,14.96-4.8,21.52-9.28     c6.55-4.48,12.09-10.09,16.47-16.67c4.53-6.82,7.6-14.39,9.13-22.5l37.9-201.32C761.5,299.12,761.38,289.4,759.3,279.87z      M636.01,628.02c0,34.18-27.81,61.98-61.98,61.98H168.03c-34.18,0-61.98-27.81-61.98-61.98V426.56     c0-34.15,27.76-61.94,61.9-61.98h406.08c34.18,0,61.98,27.81,61.98,61.98V628.02z M705.46,507     c-4.54,24.13-27.87,40.06-51.99,35.52l-0.85-0.16V426.56c0-10.61-2.08-20.9-6.18-30.6c-3.96-9.36-9.63-17.76-16.84-24.98     c-7.22-7.22-15.62-12.88-24.98-16.84c-9.7-4.1-19.99-6.18-30.6-6.18H187.98l19.72-104.72l528.45,100.76L705.46,507z      M743.36,305.69l-4.14,21.98L210.77,226.9l3.91-20.75c2.77-14.74,11.12-27.51,23.5-35.97c12.38-8.46,27.32-11.59,42.05-8.81     l418.35,78.76c14.74,2.77,27.51,11.12,35.97,23.5C743,276.02,746.13,290.95,743.36,305.69z"
   id="path1" />
		</g>
	</g>
	<g
   id="g3">
		<path
   class="st0"
   d="M264.55,568.85h-89.66c-10.35,0-18.78-8.42-18.78-18.78v-37.81c0-10.35,8.42-18.78,18.78-18.78h89.66    c10.35,0,18.78,8.42,18.78,18.78v37.81C283.32,560.42,274.9,568.85,264.55,568.85z M174.88,502.43c-5.42,0-9.83,4.41-9.83,9.83    v37.81c0,5.42,4.41,9.83,9.83,9.83h89.66c5.42,0,9.83-4.41,9.83-9.83v-37.81c0-5.42-4.41-9.83-9.83-9.83H174.88z"
   id="path2" />
	</g>
	<g
   id="g4">
		<path
   class="st0"
   d="M231.42,631.9h-57.56c-7.34,0-13.28-5.95-13.28-13.28v0c0-7.34,5.95-13.28,13.28-13.28h57.56    c7.34,0,13.28,5.95,13.28,13.28v0C244.71,625.95,238.76,631.9,231.42,631.9z"
   id="path3" />
	</g>
	<g
   id="g5">
		<path
   class="st0"
   d="M348.41,631.9h-57.56c-7.34,0-13.28-5.95-13.28-13.28v0c0-7.34,5.95-13.28,13.28-13.28h57.56    c7.34,0,13.28,5.95,13.28,13.28v0C361.7,625.95,355.75,631.9,348.41,631.9z"
   id="path4" />
	</g>
	<g
   id="g6">
		<path
   class="st0"
   d="M462.57,631.9h-57.56c-7.34,0-13.28-5.95-13.28-13.28v0c0-7.34,5.95-13.28,13.28-13.28h57.56    c7.34,0,13.28,5.95,13.28,13.28v0C475.85,625.95,469.9,631.9,462.57,631.9z"
   id="path5" />
	</g>
	<g
   id="g7">
		<path
   class="st0"
   d="M577.14,631.9h-57.56c-7.34,0-13.28-5.95-13.28-13.28v0c0-7.34,5.95-13.28,13.28-13.28h57.56    c7.34,0,13.28,5.95,13.28,13.28v0C590.42,625.95,584.47,631.9,577.14,631.9z"
   id="path6" />
	</g>
</g>
</svg>
